M48
; DRILL file {KiCad 9.0.2} date 2025-06-28T10:53:49+0300
; FORMAT={-:-/ absolute / metric / decimal}
; #@! TF.CreationDate,2025-06-28T10:53:49+03:00
; #@! TF.GenerationSoftware,Kicad,Pcbnew,9.0.2
; #@! TF.FileFunction,Plated,1,2,PTH
FMAT,2
METRIC
; #@! TA.AperFunction,Plated,PTH,ViaDrill
T1C0.300
; #@! TA.AperFunction,Plated,PTH,ComponentDrill
T2C0.750
; #@! TA.AperFunction,Plated,PTH,ComponentDrill
T3C0.800
; #@! TA.AperFunction,Plated,PTH,ComponentDrill
T4C0.950
; #@! TA.AperFunction,Plated,PTH,ComponentDrill
T5C1.250
%
G90
G05
T1
X116.4Y-58.1
X123.526Y-71.54
X124.3Y-77.56
X125.299Y-77.593
X132.128Y-71.461
X133.724Y-74.156
X140.004Y-55.301
X144.056Y-52.122
X149.964Y-71.912
X150.517Y-67.602
X151.081Y-60.389
X151.225Y-74.395
X151.364Y-71.604
X151.987Y-66.23
X153.153Y-62.92
X157.156Y-64.825
X158.063Y-72.516
X162.68Y-54.027
X165.887Y-76.824
X169.496Y-74.823
X174.36Y-74.373
X176.236Y-61.616
X177.346Y-64.668
X177.711Y-69.073
T2
X125.0Y-76.0
X127.0Y-76.0
X136.0Y-76.0
X138.0Y-76.0
X178.2Y-78.4
X180.2Y-78.4
X182.2Y-78.4
T3
X147.19Y-54.03
X147.19Y-56.57
X147.19Y-59.11
X147.19Y-61.65
X147.19Y-64.19
X147.19Y-66.73
X147.19Y-69.27
X147.19Y-71.81
X147.19Y-74.35
X147.19Y-76.89
X147.19Y-79.43
X147.19Y-81.97
X154.81Y-54.03
X154.81Y-56.57
X154.81Y-59.11
X154.81Y-61.65
X154.81Y-64.19
X154.81Y-66.73
X154.81Y-69.27
X154.81Y-71.81
X154.81Y-74.35
X154.81Y-76.89
X154.81Y-79.43
X154.81Y-81.97
X158.84Y-78.0
X159.49Y-57.38
X159.49Y-72.62
X162.03Y-57.38
X162.03Y-72.62
X164.57Y-57.38
X164.57Y-72.62
X167.11Y-57.38
X167.11Y-72.62
X169.0Y-78.0
X169.65Y-57.38
X169.65Y-72.62
X172.19Y-57.38
X172.19Y-72.62
X174.73Y-57.38
X174.73Y-72.62
X177.27Y-57.38
X177.27Y-72.62
X179.81Y-57.38
X179.81Y-72.62
X182.35Y-57.38
X182.35Y-72.62
X184.89Y-57.38
X184.89Y-72.62
X187.43Y-57.38
X187.43Y-72.62
T4
X115.11Y-59.92
X115.11Y-70.08
X117.65Y-59.92
X117.65Y-70.08
X120.19Y-59.92
X120.19Y-70.08
X122.73Y-59.92
X122.73Y-70.08
X125.27Y-59.92
X125.27Y-70.08
X127.81Y-59.92
X127.81Y-70.08
X130.35Y-59.92
X130.35Y-70.08
X132.89Y-59.92
X132.89Y-70.08
X169.11Y-59.92
X169.11Y-70.08
X171.65Y-59.92
X171.65Y-70.08
X174.19Y-59.92
X174.19Y-70.08
X176.73Y-59.92
X176.73Y-70.08
X179.27Y-59.92
X179.27Y-70.08
X181.81Y-59.92
X181.81Y-70.08
X184.35Y-59.92
X184.35Y-70.08
X186.89Y-59.92
X186.89Y-70.08
T5
X109.75Y-85.5
X109.75Y-90.5
X122.25Y-85.5
X122.25Y-90.5
X129.75Y-85.5
X129.75Y-90.5
X142.25Y-85.5
X142.25Y-90.5
X159.75Y-85.5
X159.75Y-90.5
X172.25Y-85.5
X172.25Y-90.5
X179.75Y-85.5
X179.75Y-90.5
X192.25Y-85.5
X192.25Y-90.5
M30
